<mxfile host="app.diagrams.net" agent="Mozilla/5.0 (Macintosh; Intel Mac OS X 10_15_7) AppleWebKit/537.36 (KHTML, like Gecko) Chrome/133.0.0.0 Safari/537.36" version="26.0.16">
  <diagram id="Ht1M8jgEwFfnCIfOTk4-" name="Page-1">
    <mxGraphModel dx="3297" dy="1956" grid="1" gridSize="10" guides="1" tooltips="1" connect="1" arrows="1" fold="1" page="1" pageScale="1" pageWidth="1169" pageHeight="827" math="0" shadow="0">
      <root>
        <mxCell id="0" />
        <mxCell id="1" parent="0" />
        <mxCell id="UEzPUAAOIrF-is8g5C7q-74" value="AWS Cloud" style="points=[[0,0],[0.25,0],[0.5,0],[0.75,0],[1,0],[1,0.25],[1,0.5],[1,0.75],[1,1],[0.75,1],[0.5,1],[0.25,1],[0,1],[0,0.75],[0,0.5],[0,0.25]];outlineConnect=0;gradientColor=none;html=1;whiteSpace=wrap;fontSize=12;fontStyle=0;shape=mxgraph.aws4.group;grIcon=mxgraph.aws4.group_aws_cloud_alt;strokeColor=#232F3E;fillColor=none;verticalAlign=top;align=left;spacingLeft=30;fontColor=#232F3E;dashed=0;labelBackgroundColor=#ffffff;container=1;pointerEvents=0;collapsible=0;recursiveResize=0;" parent="1" vertex="1">
          <mxGeometry x="20" y="80" width="790" height="650" as="geometry" />
        </mxCell>
        <mxCell id="UEzPUAAOIrF-is8g5C7q-77" value="S3 Storage" style="outlineConnect=0;fontColor=#232F3E;gradientColor=none;fillColor=#277116;strokeColor=none;dashed=0;verticalLabelPosition=bottom;verticalAlign=top;align=center;html=1;fontSize=12;fontStyle=0;aspect=fixed;pointerEvents=1;shape=mxgraph.aws4.bucket_with_objects;labelBackgroundColor=#ffffff;" parent="UEzPUAAOIrF-is8g5C7q-74" vertex="1">
          <mxGeometry x="290" y="73" width="75" height="78" as="geometry" />
        </mxCell>
        <mxCell id="YL5_77WFKHzcmVkcDnMJ-29" value="Redshift" style="text;html=1;align=center;verticalAlign=middle;whiteSpace=wrap;rounded=0;" vertex="1" parent="UEzPUAAOIrF-is8g5C7q-74">
          <mxGeometry x="680" y="160.5" width="60" height="30" as="geometry" />
        </mxCell>
        <mxCell id="YL5_77WFKHzcmVkcDnMJ-30" value="Transformation" style="text;html=1;align=center;verticalAlign=middle;whiteSpace=wrap;rounded=0;" vertex="1" parent="UEzPUAAOIrF-is8g5C7q-74">
          <mxGeometry x="475" y="160.5" width="60" height="30" as="geometry" />
        </mxCell>
        <mxCell id="UEzPUAAOIrF-is8g5C7q-107" value="" style="rounded=0;whiteSpace=wrap;html=1;labelBackgroundColor=none;fillColor=none;dashed=1;container=1;pointerEvents=0;collapsible=0;recursiveResize=0;" parent="UEzPUAAOIrF-is8g5C7q-74" vertex="1">
          <mxGeometry x="290" y="220" width="480" height="430" as="geometry" />
        </mxCell>
        <mxCell id="YL5_77WFKHzcmVkcDnMJ-81" value="S3 Storage" style="outlineConnect=0;fontColor=#232F3E;gradientColor=none;fillColor=#277116;strokeColor=none;dashed=0;verticalLabelPosition=bottom;verticalAlign=top;align=center;html=1;fontSize=12;fontStyle=0;aspect=fixed;pointerEvents=1;shape=mxgraph.aws4.bucket_with_objects;labelBackgroundColor=#ffffff;" vertex="1" parent="UEzPUAAOIrF-is8g5C7q-107">
          <mxGeometry x="400" y="75" width="75" height="78" as="geometry" />
        </mxCell>
        <mxCell id="YL5_77WFKHzcmVkcDnMJ-88" value="Amazon&lt;br&gt;CloudWatch&lt;br&gt;" style="outlineConnect=0;fontColor=#232F3E;gradientColor=#F34482;gradientDirection=north;fillColor=#BC1356;strokeColor=#ffffff;dashed=0;verticalLabelPosition=bottom;verticalAlign=top;align=center;html=1;fontSize=12;fontStyle=0;aspect=fixed;shape=mxgraph.aws4.resourceIcon;resIcon=mxgraph.aws4.cloudwatch;labelBackgroundColor=#ffffff;" vertex="1" parent="UEzPUAAOIrF-is8g5C7q-107">
          <mxGeometry x="10" y="75" width="78" height="78" as="geometry" />
        </mxCell>
        <mxCell id="YL5_77WFKHzcmVkcDnMJ-89" value="" style="endArrow=classic;html=1;rounded=0;" edge="1" parent="UEzPUAAOIrF-is8g5C7q-107" source="YL5_77WFKHzcmVkcDnMJ-81" target="YL5_77WFKHzcmVkcDnMJ-88">
          <mxGeometry width="50" height="50" relative="1" as="geometry">
            <mxPoint x="280" y="120" as="sourcePoint" />
            <mxPoint x="330" y="70" as="targetPoint" />
          </mxGeometry>
        </mxCell>
        <mxCell id="YL5_77WFKHzcmVkcDnMJ-92" value="" style="endArrow=classic;html=1;rounded=0;" edge="1" parent="UEzPUAAOIrF-is8g5C7q-107" target="UEzPUAAOIrF-is8g5C7q-77">
          <mxGeometry width="50" height="50" relative="1" as="geometry">
            <mxPoint x="40" y="70" as="sourcePoint" />
            <mxPoint x="90" y="20" as="targetPoint" />
          </mxGeometry>
        </mxCell>
        <mxCell id="YL5_77WFKHzcmVkcDnMJ-70" value="" style="image;aspect=fixed;perimeter=ellipsePerimeter;html=1;align=center;shadow=0;dashed=0;fontColor=#4277BB;labelBackgroundColor=default;fontSize=12;spacingTop=3;image=img/lib/ibm/infrastructure/transformation_connectivity.svg;" vertex="1" parent="UEzPUAAOIrF-is8g5C7q-74">
          <mxGeometry x="440" y="73" width="87.5" height="87.5" as="geometry" />
        </mxCell>
        <mxCell id="YL5_77WFKHzcmVkcDnMJ-27" value="" style="outlineConnect=0;dashed=0;verticalLabelPosition=bottom;verticalAlign=top;align=center;html=1;shape=mxgraph.aws3.redshift;fillColor=#2E73B8;gradientColor=none;" vertex="1" parent="UEzPUAAOIrF-is8g5C7q-74">
          <mxGeometry x="683.5" y="79" width="80" height="75.5" as="geometry" />
        </mxCell>
        <mxCell id="YL5_77WFKHzcmVkcDnMJ-80" value="" style="edgeStyle=elbowEdgeStyle;elbow=horizontal;endArrow=classic;html=1;curved=0;rounded=0;endSize=8;startSize=8;exitX=1;exitY=0.5;exitDx=0;exitDy=0;entryX=0;entryY=0.5;entryDx=0;entryDy=0;entryPerimeter=0;" edge="1" parent="UEzPUAAOIrF-is8g5C7q-74" source="YL5_77WFKHzcmVkcDnMJ-70" target="YL5_77WFKHzcmVkcDnMJ-27">
          <mxGeometry width="50" height="50" relative="1" as="geometry">
            <mxPoint x="370" y="160" as="sourcePoint" />
            <mxPoint x="420" y="110" as="targetPoint" />
            <Array as="points">
              <mxPoint x="560" y="117" />
            </Array>
          </mxGeometry>
        </mxCell>
        <mxCell id="YL5_77WFKHzcmVkcDnMJ-82" value="" style="edgeStyle=elbowEdgeStyle;elbow=horizontal;endArrow=classic;html=1;curved=0;rounded=0;endSize=8;startSize=8;exitX=0.5;exitY=1;exitDx=0;exitDy=0;exitPerimeter=0;" edge="1" parent="UEzPUAAOIrF-is8g5C7q-74" source="YL5_77WFKHzcmVkcDnMJ-27" target="YL5_77WFKHzcmVkcDnMJ-81">
          <mxGeometry width="50" height="50" relative="1" as="geometry">
            <mxPoint x="745.01" y="155" as="sourcePoint" />
            <mxPoint x="700.0017274384688" y="334" as="targetPoint" />
          </mxGeometry>
        </mxCell>
        <mxCell id="YL5_77WFKHzcmVkcDnMJ-97" value="" style="endArrow=classic;html=1;rounded=0;entryX=0.5;entryY=1;entryDx=0;entryDy=0;entryPerimeter=0;" edge="1" parent="UEzPUAAOIrF-is8g5C7q-74" target="YL5_77WFKHzcmVkcDnMJ-64">
          <mxGeometry width="50" height="50" relative="1" as="geometry">
            <mxPoint x="720" y="80" as="sourcePoint" />
            <mxPoint x="770" y="30" as="targetPoint" />
          </mxGeometry>
        </mxCell>
        <mxCell id="UEzPUAAOIrF-is8g5C7q-75" value="AWS Cloud" style="points=[[0,0],[0.25,0],[0.5,0],[0.75,0],[1,0],[1,0.25],[1,0.5],[1,0.75],[1,1],[0.75,1],[0.5,1],[0.25,1],[0,1],[0,0.75],[0,0.5],[0,0.25]];outlineConnect=0;gradientColor=none;html=1;whiteSpace=wrap;fontSize=12;fontStyle=0;shape=mxgraph.aws4.group;grIcon=mxgraph.aws4.group_aws_cloud_alt;strokeColor=#232F3E;fillColor=none;verticalAlign=top;align=left;spacingLeft=30;fontColor=#232F3E;dashed=0;labelBackgroundColor=#ffffff;container=1;pointerEvents=0;collapsible=0;recursiveResize=0;" parent="1" vertex="1">
          <mxGeometry x="850" y="80" width="270" height="650" as="geometry" />
        </mxCell>
        <mxCell id="YL5_77WFKHzcmVkcDnMJ-96" value="S3 Storage" style="outlineConnect=0;fontColor=#232F3E;gradientColor=none;fillColor=#277116;strokeColor=none;dashed=0;verticalLabelPosition=bottom;verticalAlign=top;align=center;html=1;fontSize=12;fontStyle=0;aspect=fixed;pointerEvents=1;shape=mxgraph.aws4.bucket_with_objects;labelBackgroundColor=#ffffff;" vertex="1" parent="UEzPUAAOIrF-is8g5C7q-75">
          <mxGeometry x="130" y="280" width="75" height="78" as="geometry" />
        </mxCell>
        <mxCell id="YL5_77WFKHzcmVkcDnMJ-119" value="Final Agg. Results" style="text;html=1;align=center;verticalAlign=middle;whiteSpace=wrap;rounded=0;" vertex="1" parent="UEzPUAAOIrF-is8g5C7q-75">
          <mxGeometry x="137.5" y="380" width="60" height="30" as="geometry" />
        </mxCell>
        <mxCell id="YL5_77WFKHzcmVkcDnMJ-122" value="" style="edgeStyle=isometricEdgeStyle;rounded=0;orthogonalLoop=1;jettySize=auto;html=1;" edge="1" parent="UEzPUAAOIrF-is8g5C7q-75" target="YL5_77WFKHzcmVkcDnMJ-96">
          <mxGeometry relative="1" as="geometry">
            <mxPoint x="174.61" y="187.99666049839558" as="sourcePoint" />
            <mxPoint x="251.10172743846886" y="313.83414107101635" as="targetPoint" />
          </mxGeometry>
        </mxCell>
        <mxCell id="YL5_77WFKHzcmVkcDnMJ-120" value="Amazon&lt;br&gt;CloudWatch&lt;br&gt;" style="outlineConnect=0;fontColor=#232F3E;gradientColor=#F34482;gradientDirection=north;fillColor=#BC1356;strokeColor=#ffffff;dashed=0;verticalLabelPosition=bottom;verticalAlign=top;align=center;html=1;fontSize=12;fontStyle=0;aspect=fixed;shape=mxgraph.aws4.resourceIcon;resIcon=mxgraph.aws4.cloudwatch;labelBackgroundColor=#ffffff;" vertex="1" parent="UEzPUAAOIrF-is8g5C7q-75">
          <mxGeometry x="128.5" y="110" width="78" height="78" as="geometry" />
        </mxCell>
        <mxCell id="YL5_77WFKHzcmVkcDnMJ-13" value="" style="edgeStyle=orthogonalEdgeStyle;rounded=0;orthogonalLoop=1;jettySize=auto;html=1;" edge="1" parent="1" target="UEzPUAAOIrF-is8g5C7q-77">
          <mxGeometry relative="1" as="geometry">
            <mxPoint x="226.80000000000018" y="44" as="sourcePoint" />
            <Array as="points">
              <mxPoint x="360" y="192" />
              <mxPoint x="360" y="192" />
            </Array>
          </mxGeometry>
        </mxCell>
        <mxCell id="YL5_77WFKHzcmVkcDnMJ-12" value="" style="edgeStyle=orthogonalEdgeStyle;rounded=0;orthogonalLoop=1;jettySize=auto;html=1;entryX=0;entryY=0.5;entryDx=0;entryDy=0;entryPerimeter=0;" edge="1" parent="1" source="YL5_77WFKHzcmVkcDnMJ-1" target="YL5_77WFKHzcmVkcDnMJ-10">
          <mxGeometry relative="1" as="geometry" />
        </mxCell>
        <mxCell id="YL5_77WFKHzcmVkcDnMJ-1" value="" style="image;aspect=fixed;html=1;points=[];align=center;fontSize=12;image=img/lib/azure2/general/Files.svg;" vertex="1" parent="1">
          <mxGeometry x="-120" y="170" width="64" height="70" as="geometry" />
        </mxCell>
        <mxCell id="YL5_77WFKHzcmVkcDnMJ-25" value="Batch Files" style="text;html=1;align=center;verticalAlign=middle;whiteSpace=wrap;rounded=0;" vertex="1" parent="1">
          <mxGeometry x="-118" y="250" width="60" height="30" as="geometry" />
        </mxCell>
        <mxCell id="YL5_77WFKHzcmVkcDnMJ-47" value="" style="rounded=0;whiteSpace=wrap;html=1;labelBackgroundColor=none;fillColor=none;dashed=1;container=1;pointerEvents=0;collapsible=0;recursiveResize=0;" vertex="1" parent="1">
          <mxGeometry x="50" y="-180" width="1070" height="240" as="geometry" />
        </mxCell>
        <mxCell id="YL5_77WFKHzcmVkcDnMJ-37" value="" style="image;sketch=0;aspect=fixed;html=1;points=[];align=center;fontSize=12;image=img/lib/mscae/Docker.svg;" vertex="1" parent="YL5_77WFKHzcmVkcDnMJ-47">
          <mxGeometry width="50" height="41" as="geometry" />
        </mxCell>
        <mxCell id="YL5_77WFKHzcmVkcDnMJ-33" value="" style="sketch=0;points=[[0,0,0],[0.25,0,0],[0.5,0,0],[0.75,0,0],[1,0,0],[0,1,0],[0.25,1,0],[0.5,1,0],[0.75,1,0],[1,1,0],[0,0.25,0],[0,0.5,0],[0,0.75,0],[1,0.25,0],[1,0.5,0],[1,0.75,0]];outlineConnect=0;fontColor=#232F3E;fillColor=#E7157B;strokeColor=#ffffff;dashed=0;verticalLabelPosition=bottom;verticalAlign=top;align=center;html=1;fontSize=12;fontStyle=0;aspect=fixed;shape=mxgraph.aws4.resourceIcon;resIcon=mxgraph.aws4.managed_workflows_for_apache_airflow;" vertex="1" parent="YL5_77WFKHzcmVkcDnMJ-47">
          <mxGeometry x="410" width="78" height="78" as="geometry" />
        </mxCell>
        <mxCell id="YL5_77WFKHzcmVkcDnMJ-10" value="" style="outlineConnect=0;dashed=0;verticalLabelPosition=bottom;verticalAlign=top;align=center;html=1;shape=mxgraph.aws3.android;fillColor=#FFD44F;gradientColor=none;" vertex="1" parent="YL5_77WFKHzcmVkcDnMJ-47">
          <mxGeometry x="140" y="100" width="73.5" height="84" as="geometry" />
        </mxCell>
        <mxCell id="YL5_77WFKHzcmVkcDnMJ-63" value="" style="outlineConnect=0;dashed=0;verticalLabelPosition=bottom;verticalAlign=top;align=center;html=1;shape=mxgraph.aws3.android;fillColor=#FFD44F;gradientColor=none;" vertex="1" parent="YL5_77WFKHzcmVkcDnMJ-47">
          <mxGeometry x="410" y="100" width="73.5" height="84" as="geometry" />
        </mxCell>
        <mxCell id="YL5_77WFKHzcmVkcDnMJ-64" value="" style="outlineConnect=0;dashed=0;verticalLabelPosition=bottom;verticalAlign=top;align=center;html=1;shape=mxgraph.aws3.android;fillColor=#FFD44F;gradientColor=none;" vertex="1" parent="YL5_77WFKHzcmVkcDnMJ-47">
          <mxGeometry x="660" y="100" width="73.5" height="84" as="geometry" />
        </mxCell>
        <mxCell id="YL5_77WFKHzcmVkcDnMJ-65" value="" style="edgeStyle=elbowEdgeStyle;elbow=horizontal;endArrow=classic;html=1;curved=0;rounded=0;endSize=8;startSize=8;exitX=0.5;exitY=0;exitDx=0;exitDy=0;exitPerimeter=0;" edge="1" parent="YL5_77WFKHzcmVkcDnMJ-47" source="YL5_77WFKHzcmVkcDnMJ-10" target="YL5_77WFKHzcmVkcDnMJ-33">
          <mxGeometry width="50" height="50" relative="1" as="geometry">
            <mxPoint x="410" y="280" as="sourcePoint" />
            <mxPoint x="460" y="230" as="targetPoint" />
            <Array as="points">
              <mxPoint x="177" y="80" />
              <mxPoint x="290" y="80" />
            </Array>
          </mxGeometry>
        </mxCell>
        <mxCell id="YL5_77WFKHzcmVkcDnMJ-69" value="" style="edgeStyle=elbowEdgeStyle;elbow=horizontal;endArrow=classic;html=1;curved=0;rounded=0;endSize=8;startSize=8;exitX=0.5;exitY=0;exitDx=0;exitDy=0;exitPerimeter=0;entryX=1;entryY=0.5;entryDx=0;entryDy=0;entryPerimeter=0;" edge="1" parent="YL5_77WFKHzcmVkcDnMJ-47" source="YL5_77WFKHzcmVkcDnMJ-64" target="YL5_77WFKHzcmVkcDnMJ-33">
          <mxGeometry width="50" height="50" relative="1" as="geometry">
            <mxPoint x="410" y="280" as="sourcePoint" />
            <mxPoint x="460" y="230" as="targetPoint" />
            <Array as="points">
              <mxPoint x="697" y="80" />
            </Array>
          </mxGeometry>
        </mxCell>
        <mxCell id="YL5_77WFKHzcmVkcDnMJ-78" value="Boto3 (Ingestion)" style="text;html=1;align=center;verticalAlign=middle;resizable=0;points=[];autosize=1;strokeColor=none;fillColor=none;" vertex="1" parent="YL5_77WFKHzcmVkcDnMJ-47">
          <mxGeometry x="170" y="180" width="110" height="30" as="geometry" />
        </mxCell>
        <mxCell id="YL5_77WFKHzcmVkcDnMJ-86" value="Airflow" style="text;html=1;align=center;verticalAlign=middle;whiteSpace=wrap;rounded=0;" vertex="1" parent="YL5_77WFKHzcmVkcDnMJ-47">
          <mxGeometry x="488" y="6" width="60" height="30" as="geometry" />
        </mxCell>
        <mxCell id="YL5_77WFKHzcmVkcDnMJ-73" value="" style="endArrow=classic;html=1;rounded=0;exitX=0.5;exitY=1;exitDx=0;exitDy=0;exitPerimeter=0;" edge="1" parent="YL5_77WFKHzcmVkcDnMJ-47">
          <mxGeometry width="50" height="50" relative="1" as="geometry">
            <mxPoint x="445.55" y="180" as="sourcePoint" />
            <mxPoint x="452.4498048692829" y="326.03914003680984" as="targetPoint" />
          </mxGeometry>
        </mxCell>
        <mxCell id="YL5_77WFKHzcmVkcDnMJ-98" value="" style="edgeStyle=elbowEdgeStyle;elbow=horizontal;endArrow=classic;html=1;curved=0;rounded=0;endSize=8;startSize=8;entryX=0.462;entryY=-0.002;entryDx=0;entryDy=0;entryPerimeter=0;" edge="1" parent="YL5_77WFKHzcmVkcDnMJ-47">
          <mxGeometry width="50" height="50" relative="1" as="geometry">
            <mxPoint x="730" y="140" as="sourcePoint" />
            <mxPoint x="934.6506287146767" y="544.844" as="targetPoint" />
          </mxGeometry>
        </mxCell>
        <mxCell id="YL5_77WFKHzcmVkcDnMJ-99" value="Pandas Transformation" style="text;html=1;align=center;verticalAlign=middle;whiteSpace=wrap;rounded=0;" vertex="1" parent="YL5_77WFKHzcmVkcDnMJ-47">
          <mxGeometry x="470" y="180" width="60" height="30" as="geometry" />
        </mxCell>
        <mxCell id="YL5_77WFKHzcmVkcDnMJ-100" value="Agg psycopg2" style="text;html=1;align=center;verticalAlign=middle;whiteSpace=wrap;rounded=0;" vertex="1" parent="YL5_77WFKHzcmVkcDnMJ-47">
          <mxGeometry x="700" y="180" width="60" height="30" as="geometry" />
        </mxCell>
        <mxCell id="YL5_77WFKHzcmVkcDnMJ-68" value="" style="endArrow=classic;html=1;rounded=0;entryX=0.5;entryY=1;entryDx=0;entryDy=0;entryPerimeter=0;" edge="1" parent="1" target="YL5_77WFKHzcmVkcDnMJ-33">
          <mxGeometry width="50" height="50" relative="1" as="geometry">
            <mxPoint x="499" y="-30" as="sourcePoint" />
            <mxPoint x="510" y="90" as="targetPoint" />
            <Array as="points">
              <mxPoint x="500" y="-40" />
              <mxPoint x="499" y="-30" />
            </Array>
          </mxGeometry>
        </mxCell>
        <mxCell id="YL5_77WFKHzcmVkcDnMJ-76" value="" style="edgeStyle=elbowEdgeStyle;elbow=horizontal;endArrow=classic;html=1;curved=0;rounded=0;endSize=8;startSize=8;" edge="1" parent="1" source="UEzPUAAOIrF-is8g5C7q-77">
          <mxGeometry width="50" height="50" relative="1" as="geometry">
            <mxPoint x="460" y="140" as="sourcePoint" />
            <mxPoint x="460" y="192" as="targetPoint" />
          </mxGeometry>
        </mxCell>
        <mxCell id="YL5_77WFKHzcmVkcDnMJ-77" value="" style="edgeStyle=orthogonalEdgeStyle;rounded=0;orthogonalLoop=1;jettySize=auto;html=1;" edge="1" parent="1" source="YL5_77WFKHzcmVkcDnMJ-10">
          <mxGeometry relative="1" as="geometry">
            <mxPoint x="227" y="14" as="sourcePoint" />
            <mxPoint x="226.80000000000018" y="44" as="targetPoint" />
            <Array as="points" />
          </mxGeometry>
        </mxCell>
        <mxCell id="YL5_77WFKHzcmVkcDnMJ-101" value="" style="rounded=0;whiteSpace=wrap;html=1;labelBackgroundColor=none;fillColor=none;dashed=1;container=1;pointerEvents=0;collapsible=0;recursiveResize=0;" vertex="1" parent="1">
          <mxGeometry x="-220" y="80" width="220" height="255" as="geometry" />
        </mxCell>
        <mxCell id="YL5_77WFKHzcmVkcDnMJ-117" value="Local Folder" style="text;html=1;align=center;verticalAlign=middle;resizable=0;points=[];autosize=1;strokeColor=none;fillColor=none;" vertex="1" parent="YL5_77WFKHzcmVkcDnMJ-101">
          <mxGeometry width="90" height="30" as="geometry" />
        </mxCell>
        <mxCell id="YL5_77WFKHzcmVkcDnMJ-118" value="Text" style="text;html=1;align=center;verticalAlign=middle;whiteSpace=wrap;rounded=0;" vertex="1" parent="1">
          <mxGeometry x="410" y="150" width="60" height="30" as="geometry" />
        </mxCell>
      </root>
    </mxGraphModel>
  </diagram>
</mxfile>
